<svg xmlns="http://www.w3.org/2000/svg" height="24" viewBox="0 -960 960 960" width="24"><path d="m355.728-94.27-69.804-117.885-133.115-28.863 13.231-136.329L76.617-480l89.423-102.656-13.231-136.305 133.167-28.846 69.717-117.922 124.289 53.415 124.29-53.415 69.804 117.884 133.115 28.863-13.231 136.329L883.383-480 793.96-377.344l13.231 136.305-133.167 28.846-69.717 117.922-124.289-53.415-124.29 53.415Zm23.887-71.768L480-208.461l101.615 42.423 56.77-94.385 108.364-25.298-10.033-111.061L809.962-480l-73.246-84.454 10.033-111.061-108.364-24.062-58-94.385L480-751.539l-101.615-42.423-56.77 94.385-108.364 24.062 10.033 111.061L150.038-480l73.246 83.218-10.033 112.297 108.364 24.062 58 94.385ZM480-480Zm-41.192 124.114 207.306-207.306-39.729-40.153-167.511 167.577-85.259-84.769-39.729 39.729 124.922 124.922Z"/></svg>