<svg xmlns="http://www.w3.org/2000/svg" height="24" viewBox="0 -960 960 960" width="24"><path d="M235.774-184.155q-45.678 0-77.688-32.17-32.009-32.169-32.009-77.714h-64.46v-410.48q0-28.379 19.813-48.295 19.813-19.915 48.455-19.915H667.23v149.076h102.115l129.231 173.078v156.536h-69.884q0 45.545-32.196 77.714-32.196 32.17-77.875 32.17-45.678 0-77.688-32.17-32.009-32.169-32.009-77.714H345.845q0 45.923-32.196 77.903-32.196 31.981-77.875 31.981Zm.091-55.96q22.404 0 38.212-15.712 15.808-15.712 15.808-38.212 0-22.5-15.794-38.212-15.793-15.712-38.13-15.712-22.5 0-38.212 15.712-15.712 15.712-15.712 38.212 0 22.5 15.712 38.212 15.712 15.712 38.116 15.712ZM117.576-349.999h28.116q11.961-22.847 36.076-37.982 24.116-15.135 54.193-15.135 29.308 0 53.712 14.847 24.404 14.846 36.558 38.27H611.27v-366.77H129.885q-4.808 0-8.558 3.846-3.751 3.847-3.751 8.462v354.462Zm601.136 109.884q22.404 0 38.212-15.712 15.808-15.712 15.808-38.212 0-22.5-15.794-38.212-15.793-15.712-38.13-15.712-22.501 0-38.212 15.712-15.712 15.712-15.712 38.212 0 22.5 15.712 38.212 15.711 15.712 38.116 15.712ZM667.23-428.384h178.424L740.499-567.693H667.23v139.309Zm-302.807-105Z"/></svg>