<svg xmlns="http://www.w3.org/2000/svg" height="24" viewBox="0 -960 960 960" width="24"><path d="M457.501-148.078v-55.96h286.652q4.808 0 8.558-3.078 3.751-3.077 3.751-8.077v-275.731q0-112.769-81.27-190.134Q593.923-758.423 480-758.423q-114.231 0-195.5 77.365t-81.269 190.134v229.885h-27.884q-27.654 0-47.461-19.231-19.808-19.231-19.808-46.884v-76.385q0-19.153 11.077-34.442 11.077-15.288 28.116-25.326l1.846-50.269q5.23-63.5 33.672-118.077 28.442-54.577 72.769-94.788 44.327-40.212 102.346-62.846Q415.923-811.922 480-811.922t121.692 22.635q57.615 22.634 102.192 62.538 44.577 39.904 72.769 94.231 28.192 54.326 33.923 118.019l1.846 50.076q16.654 7.731 28.077 22.327 11.423 14.596 11.423 33.25v87.384q0 18.654-11.423 33.25t-28.077 22.327v50.692q0 27.923-19.981 47.519-19.98 19.596-48.288 19.596H457.501Zm-87.693-264.076q-13.769 0-23.615-9.462-9.846-9.461-9.846-23.038t9.846-23.327q9.846-9.75 23.615-9.75 13.577 0 23.423 9.75 9.846 9.75 9.846 23.327 0 13.577-9.846 23.038-9.846 9.462-23.423 9.462Zm220.576 0q-13.769 0-23.615-9.462-9.846-9.461-9.846-23.038t9.846-23.327q9.846-9.75 23.615-9.75 13.577 0 23.423 9.75 9.846 9.75 9.846 23.327 0 13.577-9.846 23.038-9.846 9.462-23.423 9.462Zm-330.191-61.962q-4.5-94.692 60.731-162.076 65.23-67.384 160.768-67.384 80.615 0 142.75 49.884 62.134 49.884 76.057 128.807-83.615-1.308-154.826-43.461-71.211-42.154-108.788-116.769-14.731 72.5-61.673 127.942-46.942 55.442-115.019 83.057Z"/></svg>